<?xml version="1.0" standalone="no"?>
<!DOCTYPE svg PUBLIC "-//W3C//DTD SVG 20010904//EN"
 "http://www.w3.org/TR/2001/REC-SVG-20010904/DTD/svg10.dtd">
<svg version="1.0" xmlns="http://www.w3.org/2000/svg"
 width="700.000000pt" height="700.000000pt" viewBox="0 0 700.000000 700.000000"
 preserveAspectRatio="xMidYMid meet">
<metadata>
Created by potrace 1.11, written by Peter Selinger 2001-2013
</metadata>
<g transform="translate(0.000000,700.000000) scale(0.100000,-0.100000)"
fill="#000000" stroke="none">
<path d="M3269 6415 c-64 -23 -101 -46 -152 -94 -61 -57 -90 -102 -117 -180
-19 -56 -20 -85 -20 -413 l0 -353 -83 -42 c-269 -139 -462 -385 -550 -703 -17
-63 -21 -104 -21 -250 0 -158 3 -185 27 -274 15 -55 47 -140 71 -190 l44 -91
-524 -1080 c-331 -681 -524 -1090 -524 -1109 0 -25 296 -964 322 -1021 12 -27
58 -55 90 -55 62 0 64 3 439 745 197 391 360 714 362 719 2 6 61 -4 133 -22
150 -36 344 -69 462 -79 l82 -6 0 -188 0 -189 28 -30 c55 -62 149 -42 171 37
6 21 11 111 11 199 l0 161 118 8 c148 9 275 27 424 61 65 15 120 25 121 23 2
-2 160 -314 351 -694 234 -466 356 -699 376 -717 36 -33 72 -36 117 -8 30 18
37 36 132 327 187 579 231 717 231 732 0 8 -86 192 -191 409 l-192 394 34 27
c289 224 540 561 679 909 457 1154 -165 2456 -1362 2856 -202 68 -469 116
-639 116 -46 0 -68 5 -90 21 -57 40 -132 59 -231 58 -51 0 -109 -6 -129 -14z
m248 -221 c36 -22 55 -43 76 -83 l27 -55 0 -308 0 -309 -52 8 c-68 10 -256 10
-331 0 l-59 -7 4 312 c3 298 4 315 25 353 64 120 197 158 310 89z m435 -48
c314 -73 638 -228 895 -428 617 -482 912 -1239 762 -1963 -29 -140 -50 -199
-134 -370 -79 -160 -191 -340 -295 -470 -88 -111 -258 -281 -269 -269 -5 5
-136 271 -291 592 l-283 583 41 87 c88 186 124 385 103 573 -28 259 -133 481
-311 659 -77 77 -219 179 -297 214 l-43 19 0 336 c0 259 -4 350 -15 396 -8 33
-14 63 -15 66 0 7 50 -1 152 -25z m-374 -912 c180 -36 329 -121 465 -263 72
-76 93 -107 140 -203 65 -133 86 -207 94 -343 16 -286 -114 -570 -340 -741
-80 -60 -220 -128 -322 -155 -112 -30 -317 -31 -427 -1 -326 88 -571 342 -644
668 -12 58 -15 106 -11 212 5 163 20 222 86 357 121 245 340 414 611 470 91
18 256 18 348 -1z m808 -1984 c102 -212 226 -466 274 -566 l87 -180 -71 -48
c-67 -45 -328 -178 -371 -190 -18 -5 -52 57 -294 535 -150 297 -271 542 -270
544 2 2 45 21 95 42 109 47 208 111 295 191 35 33 65 59 66 58 1 0 86 -174
189 -386z m-1712 327 c105 -92 256 -183 357 -216 l36 -11 -606 -1205 c-333
-662 -609 -1199 -612 -1192 -4 7 -55 161 -113 343 l-106 331 487 1002 c267
550 488 1001 491 1001 3 0 32 -24 66 -53z m1125 -814 c149 -296 273 -545 276
-555 5 -13 -9 -20 -82 -37 -108 -25 -314 -51 -404 -51 l-67 0 -4 189 c-3 186
-3 190 -28 216 -14 15 -36 31 -49 36 -32 13 -85 -6 -111 -38 -18 -24 -20 -40
-20 -215 l0 -189 -32 5 c-18 3 -60 8 -93 11 -90 9 -227 33 -348 62 l-107 25
271 539 272 539 129 0 128 0 269 -537z m1192 -760 c83 -170 157 -324 166 -345
14 -36 13 -41 -93 -372 -59 -185 -111 -336 -115 -336 -3 0 -133 252 -288 559
l-281 559 152 75 c84 41 185 95 223 120 39 25 74 46 78 46 4 1 75 -137 158
-306z"/>
<path d="M3321 4799 c-73 -14 -168 -65 -220 -117 -213 -213 -149 -565 126
-694 186 -87 422 -19 534 154 50 78 69 142 69 235 0 201 -135 371 -330 417
-71 17 -112 18 -179 5z m150 -210 c90 -27 151 -112 151 -209 0 -130 -92 -222
-222 -222 -175 0 -277 188 -184 339 52 84 156 121 255 92z"/>
</g>
</svg>
