<?xml version="1.0" standalone="no"?>
<!DOCTYPE svg PUBLIC "-//W3C//DTD SVG 20010904//EN"
 "http://www.w3.org/TR/2001/REC-SVG-20010904/DTD/svg10.dtd">
<svg version="1.0" xmlns="http://www.w3.org/2000/svg"
 width="260.000000pt" height="260.000000pt" viewBox="0 0 260.000000 260.000000"
 preserveAspectRatio="xMidYMid meet">
<metadata>
Created by potrace 1.11, written by Peter Selinger 2001-2013
</metadata>
<g transform="translate(0.000000,260.000000) scale(0.100000,-0.100000)"
fill="#000000" stroke="none">
<path d="M1205 2376 c-16 -8 -43 -28 -60 -45 l-30 -32 -3 -151 -3 -150 -32
-16 c-54 -29 -143 -120 -170 -174 -54 -106 -58 -233 -12 -335 l24 -52 -196
-402 -196 -402 13 -51 c7 -28 36 -118 64 -201 74 -217 65 -221 238 120 88 174
141 269 150 267 18 -5 155 -30 201 -37 l37 -6 0 -67 c0 -78 8 -95 41 -90 23 3
24 8 27 78 l3 76 97 12 c53 7 111 15 128 18 l31 6 134 -264 c108 -212 138
-264 156 -266 28 -4 28 -3 98 216 l59 183 -73 146 -73 147 55 48 c75 65 142
156 188 253 59 126 73 191 73 340 0 158 -14 220 -84 362 -116 236 -343 399
-613 439 -56 8 -122 22 -147 30 -55 17 -86 17 -125 0z m131 -112 c9 -21 14
-71 14 -137 l0 -103 -85 0 -85 0 0 107 c0 126 9 155 52 173 45 19 86 3 104
-40z m216 -7 c227 -79 410 -248 495 -457 29 -73 53 -192 53 -265 0 -170 -87
-366 -226 -510 l-48 -50 -108 221 -108 222 21 47 c45 102 43 225 -5 330 -30
67 -101 145 -161 176 l-44 23 -3 148 c-4 174 -14 165 134 115z m-146 -340 c72
-37 146 -121 168 -192 49 -155 -25 -323 -174 -394 -45 -21 -70 -26 -136 -26
-73 0 -88 3 -150 35 -113 58 -174 158 -174 287 0 141 84 257 220 307 67 24
180 17 246 -17z m-399 -598 c20 -17 56 -40 82 -52 25 -12 47 -22 49 -23 2 -1
-99 -203 -224 -449 l-227 -448 -38 119 c-21 65 -39 126 -39 134 0 14 351 749
359 750 2 0 19 -14 38 -31z m654 -174 c54 -114 99 -209 99 -213 0 -9 -116 -77
-147 -87 -21 -6 -30 10 -123 196 -56 110 -100 202 -98 203 64 29 121 63 139
82 12 13 24 24 26 24 3 0 49 -92 104 -205z m-247 -124 l105 -209 -57 -10 c-31
-6 -79 -12 -107 -14 l-50 -2 -5 79 c-4 67 -8 80 -23 83 -35 7 -47 -17 -47 -91
l0 -70 -55 7 c-84 10 -155 27 -155 37 0 11 178 369 192 387 6 6 30 12 54 12
l44 0 104 -209z m447 -288 l61 -128 -38 -120 c-20 -66 -39 -124 -42 -129 -3
-5 -52 84 -109 198 -57 115 -102 211 -98 214 4 5 154 88 163 91 1 1 30 -56 63
-126z"/>
<path d="M1182 1760 c-97 -60 -97 -209 0 -271 45 -28 131 -23 177 10 84 60 80
200 -8 258 -44 30 -122 31 -169 3z m140 -80 c25 -26 29 -36 24 -63 -7 -39 -48
-77 -82 -77 -15 0 -38 12 -55 29 -40 40 -39 81 2 115 41 34 73 33 111 -4z"/>
</g>
</svg>
