<svg width="1284" height="644" viewBox="0 0 1284 644" fill="none" xmlns="http://www.w3.org/2000/svg">
<g filter="url(#filter0_d)">
<rect width="1280" height="640" fill="#FAFAFA"/>
<path d="M422.5 228.5C422.5 283.054 377.18 327.5 321 327.5C264.82 327.5 219.5 283.054 219.5 228.5C219.5 173.946 264.82 129.5 321 129.5C377.18 129.5 422.5 173.946 422.5 228.5Z" stroke="#444444" stroke-width="11"/>
<rect x="214" y="120" width="105" height="213" fill="#FAFAFA"/>
<path d="M412.5 232.5C412.5 283.422 366.402 325.5 308.5 325.5C250.598 325.5 204.5 283.422 204.5 232.5C204.5 181.578 250.598 139.5 308.5 139.5C366.402 139.5 412.5 181.578 412.5 232.5Z" fill="#FAFAFA" stroke="#FAFAFA" stroke-width="9"/>
<path d="M309.985 166.742C313.584 166.742 317.115 167.108 320.508 167.817V140.192C320.508 137.311 319.316 134.681 317.413 132.783C315.51 130.885 312.873 129.696 309.985 129.696C307.096 129.696 304.459 130.885 302.556 132.783C300.653 134.681 299.461 137.311 299.461 140.192V167.794C302.854 167.108 306.362 166.742 309.985 166.742ZM305.56 310.032C305.56 307.356 307.738 305.184 310.42 305.184C313.103 305.184 315.281 307.356 315.281 310.032V326.702C324.91 326.611 334.104 325.353 342.816 322.998L316.06 269.761C314.066 269.99 312.025 270.105 309.985 270.105C307.898 270.105 305.835 269.99 303.817 269.739L277.75 321.557C287.287 324.187 296.572 325.788 305.56 326.405V310.032ZM315.304 336.376V352.497C315.304 355.173 313.126 357.345 310.443 357.345C307.761 357.345 305.583 355.173 305.583 352.497V336.101C295.174 335.438 284.398 333.54 273.348 330.361L239.279 398.096C238.728 399.308 237.697 400.291 236.321 400.748C233.776 401.572 231.025 400.177 230.223 397.616L215.32 351.285C214.908 350.096 214.93 348.77 215.527 347.558L265.438 244.767C260.83 237.038 258.193 228.028 258.193 218.4C258.193 204.131 263.994 191.21 273.371 181.858C278.048 177.192 283.596 173.419 289.763 170.812V140.192C289.763 134.635 292.033 129.582 295.701 125.923C299.347 122.264 304.413 120 309.985 120C315.556 120 320.623 122.264 324.291 125.923C327.959 129.582 330.229 134.635 330.229 140.192V170.812C336.396 173.419 341.944 177.192 346.622 181.858C355.999 191.21 361.799 204.131 361.799 218.4C361.799 228.051 359.14 237.106 354.508 244.836L382.227 301.914C396.052 289.839 407.125 273.603 414.599 253.777C415.539 251.284 418.336 250.004 420.835 250.941C423.334 251.879 424.618 254.669 423.678 257.161C415.264 279.503 402.563 297.66 386.606 310.924L404.397 347.558C404.993 348.77 405.016 350.119 404.603 351.285L389.701 397.616C388.875 400.154 386.147 401.549 383.602 400.748C382.227 400.314 381.195 399.308 380.645 398.096L347.286 331.779C337.176 334.706 326.492 336.284 315.304 336.376ZM266.332 322.701C266.424 322.495 266.516 322.289 266.653 322.083L294.051 267.612C286.141 265.074 279.079 260.683 273.348 254.966C272.866 254.486 272.408 254.006 271.949 253.525L225.064 350.05L235.794 383.415L266.332 322.701ZM352.17 319.979C354.462 319.11 356.732 318.173 358.956 317.121C364.39 314.582 369.571 311.587 374.455 308.088L347.974 253.594C347.539 254.074 347.08 254.532 346.622 254.989C340.867 260.729 333.783 265.119 325.85 267.658L352.17 319.979ZM378.719 316.915C373.744 320.345 368.517 323.341 363.06 325.879C360.928 326.885 358.75 327.8 356.549 328.669L384.084 383.415L394.813 350.05L378.719 316.915ZM344.558 242.366C344.764 241.954 345.017 241.565 345.338 241.222C349.602 234.659 352.078 226.839 352.078 218.423C352.078 206.829 347.378 196.333 339.744 188.741C332.132 181.149 321.608 176.438 309.985 176.438C298.361 176.438 287.837 181.126 280.226 188.741C272.614 196.333 267.891 206.829 267.891 218.423C267.891 230.017 272.591 240.514 280.226 248.106C287.837 255.698 298.361 260.409 309.985 260.409C321.608 260.409 332.132 255.698 339.744 248.106C341.509 246.345 343.114 244.424 344.558 242.366ZM309.985 197.956C315.648 197.956 320.783 200.243 324.497 203.948C328.211 207.652 330.504 212.775 330.504 218.423C330.504 224.072 328.211 229.194 324.497 232.899C320.783 236.603 315.648 238.89 309.985 238.89C304.322 238.89 299.186 236.603 295.472 232.899C291.758 229.194 289.465 224.072 289.465 218.423C289.465 212.775 291.758 207.652 295.472 203.948C299.186 200.243 304.322 197.956 309.985 197.956ZM317.596 210.808C315.648 208.864 312.942 207.652 309.962 207.652C306.981 207.652 304.276 208.864 302.327 210.808C300.378 212.752 299.163 215.45 299.163 218.423C299.163 221.396 300.378 224.094 302.327 226.038C304.276 227.982 306.981 229.194 309.962 229.194C312.942 229.194 315.648 227.982 317.596 226.038C319.545 224.094 320.76 221.396 320.76 218.423C320.76 215.45 319.545 212.752 317.596 210.808Z" fill="#444444"/>
<circle cx="450" cy="328" r="15.5" fill="#FAFAFA" stroke="#444444" stroke-width="9"/>
<circle cx="1008" cy="328" r="15.5" fill="#FAFAFA" stroke="#444444" stroke-width="9"/>
<line x1="467.5" y1="328.5" x2="989.5" y2="328.5" stroke="#444444" stroke-width="9" stroke-linecap="round" stroke-linejoin="round" stroke-dasharray="50 25"/>
<path d="M1007 495.365C1015.55 495.365 1022.5 502.321 1022.5 510.933C1022.5 519.545 1015.55 526.5 1007 526.5C998.454 526.5 991.5 519.545 991.5 510.933C991.5 502.321 998.454 495.365 1007 495.365Z" fill="#FAFAFA" stroke="#444444" stroke-width="9"/>
<path d="M1008.01 312.5C1016.55 312.5 1023.51 319.455 1023.51 328.067C1023.51 336.679 1016.55 343.635 1008.01 343.635C999.462 343.635 992.508 336.679 992.508 328.067C992.508 319.455 999.462 312.5 1008.01 312.5Z" fill="#FAFAFA" stroke="#444444" stroke-width="9"/>
<line x1="1007.5" y1="495.5" x2="1007.5" y2="346.5" stroke="#444444" stroke-width="9" stroke-linecap="round" stroke-linejoin="round" stroke-dasharray="50 25"/>
<path d="M530.9 276.38C531.18 276.94 531.32 277.5 531.32 278.06C531.32 279.087 530.9 279.973 530.06 280.72C529.22 281.373 528.24 281.7 527.12 281.7C526.373 281.7 525.627 281.467 524.88 281C524.227 280.533 523.713 279.88 523.34 279.04L512.7 254.68H458.38L447.6 279.04C446.76 280.813 445.453 281.7 443.68 281.7C442.56 281.7 441.58 281.373 440.74 280.72C439.993 279.973 439.62 279.04 439.62 277.92C439.62 277.267 439.713 276.753 439.9 276.38L480.78 184.54C481.62 182.487 483.16 181.46 485.4 181.46C486.427 181.46 487.36 181.74 488.2 182.3C489.133 182.86 489.787 183.607 490.16 184.54L530.9 276.38ZM461.6 247.12H509.34L485.54 192.94L461.6 247.12ZM565.714 281.7C564.407 281.7 563.381 281.28 562.634 280.44C561.887 279.6 561.514 278.527 561.514 277.22V189.86H529.174C527.961 189.86 526.981 189.533 526.234 188.88C525.581 188.227 525.254 187.293 525.254 186.08C525.254 184.867 525.581 183.933 526.234 183.28C526.981 182.627 527.961 182.3 529.174 182.3H602.254C603.374 182.3 604.307 182.673 605.054 183.42C605.801 184.073 606.174 184.96 606.174 186.08C606.174 187.2 605.801 188.133 605.054 188.88C604.307 189.533 603.374 189.86 602.254 189.86H570.054V277.22C570.054 278.527 569.634 279.6 568.794 280.44C568.047 281.28 567.021 281.7 565.714 281.7ZM624.072 281.7C622.766 281.7 621.692 281.28 620.852 280.44C620.106 279.6 619.732 278.527 619.732 277.22V186.08C619.732 184.773 620.106 183.7 620.852 182.86C621.692 182.02 622.766 181.6 624.072 181.6C625.379 181.6 626.406 182.02 627.152 182.86C627.992 183.7 628.412 184.773 628.412 186.08V277.22C628.412 278.527 627.992 279.6 627.152 280.44C626.406 281.28 625.379 281.7 624.072 281.7ZM694.092 282.12C685.132 282.12 677.339 280.113 670.712 276.1C664.085 271.993 658.999 266.16 655.452 258.6C651.905 250.947 650.132 241.987 650.132 231.72C650.132 221.36 651.905 212.4 655.452 204.84C658.999 197.187 664.039 191.353 670.572 187.34C677.199 183.233 685.039 181.18 694.092 181.18C703.145 181.18 710.985 183.233 717.612 187.34C724.239 191.353 729.325 197.14 732.872 204.7C736.419 212.26 738.192 221.22 738.192 231.58C738.192 241.94 736.419 250.947 732.872 258.6C729.325 266.16 724.239 271.993 717.612 276.1C710.985 280.113 703.145 282.12 694.092 282.12ZM694.092 274.42C705.199 274.42 713.832 270.687 719.992 263.22C726.152 255.753 729.232 245.207 729.232 231.58C729.232 217.953 726.152 207.453 719.992 200.08C713.925 192.613 705.292 188.88 694.092 188.88C682.985 188.88 674.352 192.613 668.192 200.08C662.125 207.547 659.092 218.047 659.092 231.58C659.092 245.113 662.125 255.66 668.192 263.22C674.352 270.687 682.985 274.42 694.092 274.42ZM833.229 181.6C834.536 181.6 835.516 182.02 836.169 182.86C836.916 183.607 837.289 184.68 837.289 186.08V277.22C837.289 278.527 836.916 279.6 836.169 280.44C835.422 281.28 834.396 281.7 833.089 281.7C831.689 281.7 830.429 281 829.309 279.6L767.989 196.86V277.22C767.989 278.527 767.616 279.6 766.869 280.44C766.122 281.28 765.142 281.7 763.929 281.7C762.529 281.7 761.502 281.327 760.849 280.58C760.196 279.74 759.869 278.62 759.869 277.22V186.08C759.869 184.773 760.242 183.7 760.989 182.86C761.829 182.02 762.949 181.6 764.349 181.6C765.842 181.6 767.056 182.3 767.989 183.7L829.169 266.3V186.08C829.169 184.773 829.542 183.7 830.289 182.86C831.036 182.02 832.016 181.6 833.229 181.6ZM945.978 276.38C946.258 276.94 946.398 277.5 946.398 278.06C946.398 279.087 945.978 279.973 945.138 280.72C944.298 281.373 943.318 281.7 942.198 281.7C941.451 281.7 940.705 281.467 939.958 281C939.305 280.533 938.791 279.88 938.418 279.04L927.778 254.68H873.458L862.678 279.04C861.838 280.813 860.531 281.7 858.758 281.7C857.638 281.7 856.658 281.373 855.818 280.72C855.071 279.973 854.698 279.04 854.698 277.92C854.698 277.267 854.791 276.753 854.978 276.38L895.858 184.54C896.698 182.487 898.238 181.46 900.478 181.46C901.505 181.46 902.438 181.74 903.278 182.3C904.211 182.86 904.865 183.607 905.238 184.54L945.978 276.38ZM876.678 247.12H924.418L900.618 192.94L876.678 247.12ZM968.06 281C966.847 281 965.773 280.627 964.84 279.88C964 279.133 963.58 278.2 963.58 277.08V186.08C963.58 184.773 963.953 183.7 964.7 182.86C965.54 182.02 966.613 181.6 967.92 181.6C969.32 181.6 970.393 182.02 971.14 182.86C971.887 183.607 972.26 184.68 972.26 186.08V273.44H1020.14C1021.35 273.44 1022.29 273.767 1022.94 274.42C1023.69 275.073 1024.06 276.007 1024.06 277.22C1024.06 278.433 1023.69 279.367 1022.94 280.02C1022.29 280.673 1021.35 281 1020.14 281H968.06Z" fill="#444444"/>
<path d="M495.36 465C494.053 465 492.933 464.58 492 463.74C491.16 462.9 490.74 461.873 490.74 460.66V370.64C490.74 369.427 491.16 368.4 492 367.56C492.933 366.72 494.053 366.3 495.36 366.3H522.52C538.107 366.3 550.147 370.547 558.64 379.04C567.227 387.533 571.52 399.713 571.52 415.58C571.52 431.447 567.227 443.673 558.64 452.26C550.147 460.753 538.107 465 522.52 465H495.36ZM522.1 457.44C548.98 457.44 562.42 443.487 562.42 415.58C562.42 387.767 548.98 373.86 522.1 373.86H499.42V457.44H522.1ZM597.762 465C596.456 465 595.336 464.58 594.402 463.74C593.562 462.9 593.142 461.873 593.142 460.66V370.64C593.142 369.427 593.562 368.4 594.402 367.56C595.336 366.72 596.456 366.3 597.762 366.3H650.962C652.176 366.3 653.109 366.627 653.762 367.28C654.509 367.933 654.882 368.867 654.882 370.08C654.882 371.2 654.509 372.087 653.762 372.74C653.109 373.393 652.176 373.72 650.962 373.72H601.682V411.1H648.162C649.376 411.1 650.309 411.427 650.962 412.08C651.709 412.733 652.082 413.667 652.082 414.88C652.082 416.093 651.709 417.027 650.962 417.68C650.309 418.333 649.376 418.66 648.162 418.66H601.682V457.58H650.962C652.176 457.58 653.109 457.907 653.762 458.56C654.509 459.12 654.882 460.007 654.882 461.22C654.882 462.433 654.509 463.367 653.762 464.02C653.109 464.673 652.176 465 650.962 465H597.762ZM703.229 466.12C696.323 466.12 689.649 465.047 683.209 462.9C676.863 460.66 671.869 457.673 668.229 453.94C667.016 452.913 666.409 451.56 666.409 449.88C666.409 448.853 666.689 447.967 667.249 447.22C667.903 446.473 668.603 446.1 669.349 446.1C670.283 446.1 671.356 446.567 672.569 447.5C681.343 454.78 691.563 458.42 703.229 458.42C711.723 458.42 718.256 456.74 722.829 453.38C727.496 449.927 729.829 445.073 729.829 438.82C729.829 435.18 728.709 432.24 726.469 430C724.229 427.76 721.383 426.033 717.929 424.82C714.476 423.513 709.856 422.207 704.069 420.9C696.416 419.22 690.209 417.493 685.449 415.72C680.783 413.947 676.816 411.287 673.549 407.74C670.283 404.1 668.649 399.247 668.649 393.18C668.649 387.673 670.096 382.82 672.989 378.62C675.976 374.327 680.129 371.013 685.449 368.68C690.769 366.347 696.883 365.18 703.789 365.18C710.229 365.18 716.296 366.253 721.989 368.4C727.683 370.453 732.396 373.44 736.129 377.36C737.343 378.573 737.949 379.927 737.949 381.42C737.949 382.447 737.623 383.333 736.969 384.08C736.409 384.827 735.756 385.2 735.009 385.2C734.076 385.2 733.003 384.733 731.789 383.8C726.749 379.693 722.176 376.847 718.069 375.26C714.056 373.673 709.296 372.88 703.789 372.88C695.483 372.88 688.996 374.653 684.329 378.2C679.663 381.747 677.329 386.693 677.329 393.04C677.329 396.867 678.356 399.993 680.409 402.42C682.463 404.753 685.123 406.62 688.389 408.02C691.749 409.42 696.043 410.773 701.269 412.08L704.909 412.92C712.469 414.787 718.443 416.513 722.829 418.1C727.216 419.687 730.903 422.16 733.889 425.52C736.969 428.787 738.509 433.22 738.509 438.82C738.509 444.14 737.016 448.9 734.029 453.1C731.136 457.207 726.983 460.427 721.569 462.76C716.249 465 710.136 466.12 703.229 466.12ZM762.228 465.7C760.922 465.7 759.848 465.28 759.008 464.44C758.262 463.6 757.888 462.527 757.888 461.22V370.08C757.888 368.773 758.262 367.7 759.008 366.86C759.848 366.02 760.922 365.6 762.228 365.6C763.535 365.6 764.562 366.02 765.308 366.86C766.148 367.7 766.568 368.773 766.568 370.08V461.22C766.568 462.527 766.148 463.6 765.308 464.44C764.562 465.28 763.535 465.7 762.228 465.7ZM864.588 414.46C865.708 414.46 866.595 414.833 867.248 415.58C867.995 416.233 868.368 417.12 868.368 418.24V455.34C868.368 457.767 867.295 459.447 865.148 460.38C861.321 462.153 856.655 463.553 851.148 464.58C845.735 465.607 840.228 466.12 834.628 466.12C825.015 466.12 816.708 464.16 809.708 460.24C802.801 456.227 797.481 450.44 793.748 442.88C790.108 435.227 788.288 426.127 788.288 415.58C788.288 405.22 790.108 396.26 793.748 388.7C797.388 381.14 802.615 375.353 809.428 371.34C816.241 367.233 824.315 365.18 833.648 365.18C840.181 365.18 846.295 366.253 851.988 368.4C857.681 370.453 862.348 373.44 865.988 377.36C867.201 378.573 867.808 379.927 867.808 381.42C867.808 382.447 867.528 383.333 866.968 384.08C866.408 384.827 865.708 385.2 864.868 385.2C864.121 385.2 863.095 384.733 861.788 383.8C856.841 379.693 852.268 376.847 848.068 375.26C843.868 373.673 839.061 372.88 833.648 372.88C822.075 372.88 813.115 376.613 806.768 384.08C800.515 391.453 797.388 401.953 797.388 415.58C797.388 429.487 800.561 440.127 806.908 447.5C813.255 454.873 822.495 458.56 834.628 458.56C839.295 458.56 843.868 458.187 848.348 457.44C852.921 456.6 856.981 455.433 860.528 453.94V421.74H837.848C836.541 421.74 835.515 421.413 834.768 420.76C834.115 420.107 833.788 419.22 833.788 418.1C833.788 416.98 834.115 416.093 834.768 415.44C835.515 414.787 836.541 414.46 837.848 414.46H864.588ZM966.053 365.6C967.36 365.6 968.34 366.02 968.993 366.86C969.74 367.607 970.113 368.68 970.113 370.08V461.22C970.113 462.527 969.74 463.6 968.993 464.44C968.246 465.28 967.22 465.7 965.913 465.7C964.513 465.7 963.253 465 962.133 463.6L900.813 380.86V461.22C900.813 462.527 900.44 463.6 899.693 464.44C898.946 465.28 897.966 465.7 896.753 465.7C895.353 465.7 894.326 465.327 893.673 464.58C893.02 463.74 892.693 462.62 892.693 461.22V370.08C892.693 368.773 893.066 367.7 893.813 366.86C894.653 366.02 895.773 365.6 897.173 365.6C898.666 365.6 899.88 366.3 900.813 367.7L961.993 450.3V370.08C961.993 368.773 962.366 367.7 963.113 366.86C963.86 366.02 964.84 365.6 966.053 365.6Z" fill="#444444"/>
<rect x="2" y="2" width="1276" height="636" stroke="#444444" stroke-width="4" stroke-linecap="round" stroke-linejoin="round"/>
</g>
<defs>
<filter id="filter0_d" x="0" y="0" width="1284" height="644" filterUnits="userSpaceOnUse" color-interpolation-filters="sRGB">
<feFlood flood-opacity="0" result="BackgroundImageFix"/>
<feColorMatrix in="SourceAlpha" type="matrix" values="0 0 0 0 0 0 0 0 0 0 0 0 0 0 0 0 0 0 127 0"/>
<feOffset dx="4" dy="4"/>
<feColorMatrix type="matrix" values="0 0 0 0 0.266667 0 0 0 0 0.266667 0 0 0 0 0.266667 0 0 0 1 0"/>
<feBlend mode="normal" in2="BackgroundImageFix" result="effect1_dropShadow"/>
<feBlend mode="normal" in="SourceGraphic" in2="effect1_dropShadow" result="shape"/>
</filter>
</defs>
</svg>
