<svg width="1280" height="640" viewBox="0 0 1280 640" fill="none" xmlns="http://www.w3.org/2000/svg">
<rect width="1280" height="640" fill="white"/>
<path d="M447.5 210.5C447.5 265.054 402.18 309.5 346 309.5C289.82 309.5 244.5 265.054 244.5 210.5C244.5 155.946 289.82 111.5 346 111.5C402.18 111.5 447.5 155.946 447.5 210.5Z" stroke="black" stroke-width="11"/>
<rect x="239" y="102" width="105" height="213" fill="white"/>
<path d="M437.5 214.5C437.5 265.422 391.402 307.5 333.5 307.5C275.598 307.5 229.5 265.422 229.5 214.5C229.5 163.578 275.598 121.5 333.5 121.5C391.402 121.5 437.5 163.578 437.5 214.5Z" fill="white" stroke="white" stroke-width="9"/>
<path d="M334.985 148.742C338.584 148.742 342.115 149.108 345.508 149.817V122.192C345.508 119.311 344.316 116.681 342.413 114.783C340.51 112.885 337.873 111.696 334.985 111.696C332.096 111.696 329.459 112.885 327.556 114.783C325.653 116.681 324.461 119.311 324.461 122.192V149.794C327.854 149.108 331.362 148.742 334.985 148.742ZM330.56 292.032C330.56 289.356 332.738 287.184 335.42 287.184C338.103 287.184 340.281 289.356 340.281 292.032V308.702C349.91 308.611 359.104 307.353 367.816 304.998L341.06 251.761C339.066 251.99 337.025 252.105 334.985 252.105C332.898 252.105 330.835 251.99 328.817 251.739L302.75 303.557C312.287 306.187 321.572 307.788 330.56 308.405V292.032ZM340.304 318.376V334.497C340.304 337.173 338.126 339.345 335.443 339.345C332.761 339.345 330.583 337.173 330.583 334.497V318.101C320.174 317.438 309.398 315.54 298.348 312.361L264.279 380.096C263.728 381.308 262.697 382.291 261.321 382.748C258.776 383.572 256.025 382.177 255.223 379.616L240.32 333.285C239.908 332.096 239.93 330.77 240.527 329.558L290.438 226.767C285.83 219.038 283.193 210.028 283.193 200.4C283.193 186.131 288.994 173.21 298.371 163.858C303.048 159.192 308.596 155.419 314.763 152.812V122.192C314.763 116.635 317.033 111.582 320.701 107.923C324.347 104.264 329.413 102 334.985 102C340.556 102 345.623 104.264 349.291 107.923C352.959 111.582 355.229 116.635 355.229 122.192V152.812C361.396 155.419 366.944 159.192 371.622 163.858C380.999 173.21 386.799 186.131 386.799 200.4C386.799 210.051 384.14 219.106 379.508 226.836L407.227 283.914C421.052 271.839 432.125 255.603 439.599 235.777C440.539 233.284 443.336 232.004 445.835 232.941C448.334 233.879 449.618 236.669 448.678 239.161C440.264 261.503 427.563 279.66 411.606 292.924L429.397 329.558C429.993 330.77 430.016 332.119 429.603 333.285L414.701 379.616C413.875 382.154 411.147 383.549 408.602 382.748C407.227 382.314 406.195 381.308 405.645 380.096L372.286 313.779C362.176 316.706 351.492 318.284 340.304 318.376ZM291.332 304.701C291.424 304.495 291.516 304.289 291.653 304.083L319.051 249.612C311.141 247.074 304.079 242.683 298.348 236.966C297.866 236.486 297.408 236.006 296.949 235.525L250.064 332.05L260.794 365.415L291.332 304.701ZM377.17 301.979C379.462 301.11 381.732 300.173 383.956 299.121C389.39 296.582 394.571 293.587 399.455 290.088L372.974 235.594C372.539 236.074 372.08 236.532 371.622 236.989C365.867 242.729 358.783 247.119 350.85 249.658L377.17 301.979ZM403.719 298.915C398.744 302.345 393.517 305.341 388.06 307.879C385.928 308.885 383.75 309.8 381.549 310.669L409.084 365.415L419.813 332.05L403.719 298.915ZM369.558 224.366C369.764 223.954 370.017 223.565 370.338 223.222C374.602 216.659 377.078 208.839 377.078 200.423C377.078 188.829 372.378 178.333 364.744 170.741C357.132 163.149 346.608 158.438 334.985 158.438C323.361 158.438 312.837 163.126 305.226 170.741C297.614 178.333 292.891 188.829 292.891 200.423C292.891 212.017 297.591 222.514 305.226 230.106C312.837 237.698 323.361 242.409 334.985 242.409C346.608 242.409 357.132 237.698 364.744 230.106C366.509 228.345 368.114 226.424 369.558 224.366ZM334.985 179.956C340.648 179.956 345.783 182.243 349.497 185.948C353.211 189.652 355.504 194.775 355.504 200.423C355.504 206.072 353.211 211.194 349.497 214.899C345.783 218.603 340.648 220.89 334.985 220.89C329.322 220.89 324.186 218.603 320.472 214.899C316.758 211.194 314.465 206.072 314.465 200.423C314.465 194.775 316.758 189.652 320.472 185.948C324.186 182.243 329.322 179.956 334.985 179.956ZM342.596 192.808C340.648 190.864 337.942 189.652 334.962 189.652C331.981 189.652 329.276 190.864 327.327 192.808C325.378 194.752 324.163 197.45 324.163 200.423C324.163 203.396 325.378 206.094 327.327 208.038C329.276 209.982 331.981 211.194 334.962 211.194C337.942 211.194 340.648 209.982 342.596 208.038C344.545 206.094 345.76 203.396 345.76 200.423C345.76 197.45 344.545 194.752 342.596 192.808Z" fill="black"/>
<circle cx="474" cy="335" r="15.5" fill="white" stroke="black" stroke-width="9"/>
<circle cx="1032" cy="335" r="15.5" fill="white" stroke="black" stroke-width="9"/>
<line x1="491.5" y1="335.5" x2="1013.5" y2="335.5" stroke="black" stroke-width="9" stroke-linecap="round" stroke-linejoin="round" stroke-dasharray="50 25"/>
<path d="M1032.68 502.365C1041.22 502.365 1048.18 509.321 1048.18 517.933C1048.18 526.545 1041.22 533.5 1032.68 533.5C1024.13 533.5 1017.18 526.545 1017.18 517.933C1017.18 509.321 1024.13 502.365 1032.68 502.365Z" fill="white" stroke="black" stroke-width="9"/>
<path d="M1033.68 319.5C1042.23 319.5 1049.18 326.455 1049.18 335.067C1049.18 343.679 1042.23 350.635 1033.68 350.635C1025.14 350.635 1018.18 343.679 1018.18 335.067C1018.18 326.455 1025.14 319.5 1033.68 319.5Z" fill="white" stroke="black" stroke-width="9"/>
<line x1="1033.18" y1="502.5" x2="1033.18" y2="353.5" stroke="black" stroke-width="9" stroke-linecap="round" stroke-linejoin="round" stroke-dasharray="50 25"/>
<path d="M554.9 283.38C555.18 283.94 555.32 284.5 555.32 285.06C555.32 286.087 554.9 286.973 554.06 287.72C553.22 288.373 552.24 288.7 551.12 288.7C550.373 288.7 549.627 288.467 548.88 288C548.227 287.533 547.713 286.88 547.34 286.04L536.7 261.68H482.38L471.6 286.04C470.76 287.813 469.453 288.7 467.68 288.7C466.56 288.7 465.58 288.373 464.74 287.72C463.993 286.973 463.62 286.04 463.62 284.92C463.62 284.267 463.713 283.753 463.9 283.38L504.78 191.54C505.62 189.487 507.16 188.46 509.4 188.46C510.427 188.46 511.36 188.74 512.2 189.3C513.133 189.86 513.787 190.607 514.16 191.54L554.9 283.38ZM485.6 254.12H533.34L509.54 199.94L485.6 254.12ZM589.714 288.7C588.407 288.7 587.381 288.28 586.634 287.44C585.887 286.6 585.514 285.527 585.514 284.22V196.86H553.174C551.961 196.86 550.981 196.533 550.234 195.88C549.581 195.227 549.254 194.293 549.254 193.08C549.254 191.867 549.581 190.933 550.234 190.28C550.981 189.627 551.961 189.3 553.174 189.3H626.254C627.374 189.3 628.307 189.673 629.054 190.42C629.801 191.073 630.174 191.96 630.174 193.08C630.174 194.2 629.801 195.133 629.054 195.88C628.307 196.533 627.374 196.86 626.254 196.86H594.054V284.22C594.054 285.527 593.634 286.6 592.794 287.44C592.047 288.28 591.021 288.7 589.714 288.7ZM648.072 288.7C646.766 288.7 645.692 288.28 644.852 287.44C644.106 286.6 643.732 285.527 643.732 284.22V193.08C643.732 191.773 644.106 190.7 644.852 189.86C645.692 189.02 646.766 188.6 648.072 188.6C649.379 188.6 650.406 189.02 651.152 189.86C651.992 190.7 652.412 191.773 652.412 193.08V284.22C652.412 285.527 651.992 286.6 651.152 287.44C650.406 288.28 649.379 288.7 648.072 288.7ZM718.092 289.12C709.132 289.12 701.339 287.113 694.712 283.1C688.085 278.993 682.999 273.16 679.452 265.6C675.905 257.947 674.132 248.987 674.132 238.72C674.132 228.36 675.905 219.4 679.452 211.84C682.999 204.187 688.039 198.353 694.572 194.34C701.199 190.233 709.039 188.18 718.092 188.18C727.145 188.18 734.985 190.233 741.612 194.34C748.239 198.353 753.325 204.14 756.872 211.7C760.419 219.26 762.192 228.22 762.192 238.58C762.192 248.94 760.419 257.947 756.872 265.6C753.325 273.16 748.239 278.993 741.612 283.1C734.985 287.113 727.145 289.12 718.092 289.12ZM718.092 281.42C729.199 281.42 737.832 277.687 743.992 270.22C750.152 262.753 753.232 252.207 753.232 238.58C753.232 224.953 750.152 214.453 743.992 207.08C737.925 199.613 729.292 195.88 718.092 195.88C706.985 195.88 698.352 199.613 692.192 207.08C686.125 214.547 683.092 225.047 683.092 238.58C683.092 252.113 686.125 262.66 692.192 270.22C698.352 277.687 706.985 281.42 718.092 281.42ZM857.229 188.6C858.536 188.6 859.516 189.02 860.169 189.86C860.916 190.607 861.289 191.68 861.289 193.08V284.22C861.289 285.527 860.916 286.6 860.169 287.44C859.422 288.28 858.396 288.7 857.089 288.7C855.689 288.7 854.429 288 853.309 286.6L791.989 203.86V284.22C791.989 285.527 791.616 286.6 790.869 287.44C790.122 288.28 789.142 288.7 787.929 288.7C786.529 288.7 785.502 288.327 784.849 287.58C784.196 286.74 783.869 285.62 783.869 284.22V193.08C783.869 191.773 784.242 190.7 784.989 189.86C785.829 189.02 786.949 188.6 788.349 188.6C789.842 188.6 791.056 189.3 791.989 190.7L853.169 273.3V193.08C853.169 191.773 853.542 190.7 854.289 189.86C855.036 189.02 856.016 188.6 857.229 188.6ZM969.978 283.38C970.258 283.94 970.398 284.5 970.398 285.06C970.398 286.087 969.978 286.973 969.138 287.72C968.298 288.373 967.318 288.7 966.198 288.7C965.451 288.7 964.705 288.467 963.958 288C963.305 287.533 962.791 286.88 962.418 286.04L951.778 261.68H897.458L886.678 286.04C885.838 287.813 884.531 288.7 882.758 288.7C881.638 288.7 880.658 288.373 879.818 287.72C879.071 286.973 878.698 286.04 878.698 284.92C878.698 284.267 878.791 283.753 878.978 283.38L919.858 191.54C920.698 189.487 922.238 188.46 924.478 188.46C925.505 188.46 926.438 188.74 927.278 189.3C928.211 189.86 928.865 190.607 929.238 191.54L969.978 283.38ZM900.678 254.12H948.418L924.618 199.94L900.678 254.12ZM992.06 288C990.847 288 989.773 287.627 988.84 286.88C988 286.133 987.58 285.2 987.58 284.08V193.08C987.58 191.773 987.953 190.7 988.7 189.86C989.54 189.02 990.613 188.6 991.92 188.6C993.32 188.6 994.393 189.02 995.14 189.86C995.887 190.607 996.26 191.68 996.26 193.08V280.44H1044.14C1045.35 280.44 1046.29 280.767 1046.94 281.42C1047.69 282.073 1048.06 283.007 1048.06 284.22C1048.06 285.433 1047.69 286.367 1046.94 287.02C1046.29 287.673 1045.35 288 1044.14 288H992.06Z" fill="black"/>
<path d="M519.36 472C518.053 472 516.933 471.58 516 470.74C515.16 469.9 514.74 468.873 514.74 467.66V377.64C514.74 376.427 515.16 375.4 516 374.56C516.933 373.72 518.053 373.3 519.36 373.3H546.52C562.107 373.3 574.147 377.547 582.64 386.04C591.227 394.533 595.52 406.713 595.52 422.58C595.52 438.447 591.227 450.673 582.64 459.26C574.147 467.753 562.107 472 546.52 472H519.36ZM546.1 464.44C572.98 464.44 586.42 450.487 586.42 422.58C586.42 394.767 572.98 380.86 546.1 380.86H523.42V464.44H546.1ZM621.762 472C620.456 472 619.336 471.58 618.402 470.74C617.562 469.9 617.142 468.873 617.142 467.66V377.64C617.142 376.427 617.562 375.4 618.402 374.56C619.336 373.72 620.456 373.3 621.762 373.3H674.962C676.176 373.3 677.109 373.627 677.762 374.28C678.509 374.933 678.882 375.867 678.882 377.08C678.882 378.2 678.509 379.087 677.762 379.74C677.109 380.393 676.176 380.72 674.962 380.72H625.682V418.1H672.162C673.376 418.1 674.309 418.427 674.962 419.08C675.709 419.733 676.082 420.667 676.082 421.88C676.082 423.093 675.709 424.027 674.962 424.68C674.309 425.333 673.376 425.66 672.162 425.66H625.682V464.58H674.962C676.176 464.58 677.109 464.907 677.762 465.56C678.509 466.12 678.882 467.007 678.882 468.22C678.882 469.433 678.509 470.367 677.762 471.02C677.109 471.673 676.176 472 674.962 472H621.762ZM727.229 473.12C720.323 473.12 713.649 472.047 707.209 469.9C700.863 467.66 695.869 464.673 692.229 460.94C691.016 459.913 690.409 458.56 690.409 456.88C690.409 455.853 690.689 454.967 691.249 454.22C691.903 453.473 692.603 453.1 693.349 453.1C694.283 453.1 695.356 453.567 696.569 454.5C705.343 461.78 715.563 465.42 727.229 465.42C735.723 465.42 742.256 463.74 746.829 460.38C751.496 456.927 753.829 452.073 753.829 445.82C753.829 442.18 752.709 439.24 750.469 437C748.229 434.76 745.383 433.033 741.929 431.82C738.476 430.513 733.856 429.207 728.069 427.9C720.416 426.22 714.209 424.493 709.449 422.72C704.783 420.947 700.816 418.287 697.549 414.74C694.283 411.1 692.649 406.247 692.649 400.18C692.649 394.673 694.096 389.82 696.989 385.62C699.976 381.327 704.129 378.013 709.449 375.68C714.769 373.347 720.883 372.18 727.789 372.18C734.229 372.18 740.296 373.253 745.989 375.4C751.683 377.453 756.396 380.44 760.129 384.36C761.343 385.573 761.949 386.927 761.949 388.42C761.949 389.447 761.623 390.333 760.969 391.08C760.409 391.827 759.756 392.2 759.009 392.2C758.076 392.2 757.003 391.733 755.789 390.8C750.749 386.693 746.176 383.847 742.069 382.26C738.056 380.673 733.296 379.88 727.789 379.88C719.483 379.88 712.996 381.653 708.329 385.2C703.663 388.747 701.329 393.693 701.329 400.04C701.329 403.867 702.356 406.993 704.409 409.42C706.463 411.753 709.123 413.62 712.389 415.02C715.749 416.42 720.043 417.773 725.269 419.08L728.909 419.92C736.469 421.787 742.443 423.513 746.829 425.1C751.216 426.687 754.903 429.16 757.889 432.52C760.969 435.787 762.509 440.22 762.509 445.82C762.509 451.14 761.016 455.9 758.029 460.1C755.136 464.207 750.983 467.427 745.569 469.76C740.249 472 734.136 473.12 727.229 473.12ZM786.228 472.7C784.922 472.7 783.848 472.28 783.008 471.44C782.262 470.6 781.888 469.527 781.888 468.22V377.08C781.888 375.773 782.262 374.7 783.008 373.86C783.848 373.02 784.922 372.6 786.228 372.6C787.535 372.6 788.562 373.02 789.308 373.86C790.148 374.7 790.568 375.773 790.568 377.08V468.22C790.568 469.527 790.148 470.6 789.308 471.44C788.562 472.28 787.535 472.7 786.228 472.7ZM888.588 421.46C889.708 421.46 890.595 421.833 891.248 422.58C891.995 423.233 892.368 424.12 892.368 425.24V462.34C892.368 464.767 891.295 466.447 889.148 467.38C885.321 469.153 880.655 470.553 875.148 471.58C869.735 472.607 864.228 473.12 858.628 473.12C849.015 473.12 840.708 471.16 833.708 467.24C826.801 463.227 821.481 457.44 817.748 449.88C814.108 442.227 812.288 433.127 812.288 422.58C812.288 412.22 814.108 403.26 817.748 395.7C821.388 388.14 826.615 382.353 833.428 378.34C840.241 374.233 848.315 372.18 857.648 372.18C864.181 372.18 870.295 373.253 875.988 375.4C881.681 377.453 886.348 380.44 889.988 384.36C891.201 385.573 891.808 386.927 891.808 388.42C891.808 389.447 891.528 390.333 890.968 391.08C890.408 391.827 889.708 392.2 888.868 392.2C888.121 392.2 887.095 391.733 885.788 390.8C880.841 386.693 876.268 383.847 872.068 382.26C867.868 380.673 863.061 379.88 857.648 379.88C846.075 379.88 837.115 383.613 830.768 391.08C824.515 398.453 821.388 408.953 821.388 422.58C821.388 436.487 824.561 447.127 830.908 454.5C837.255 461.873 846.495 465.56 858.628 465.56C863.295 465.56 867.868 465.187 872.348 464.44C876.921 463.6 880.981 462.433 884.528 460.94V428.74H861.848C860.541 428.74 859.515 428.413 858.768 427.76C858.115 427.107 857.788 426.22 857.788 425.1C857.788 423.98 858.115 423.093 858.768 422.44C859.515 421.787 860.541 421.46 861.848 421.46H888.588ZM990.053 372.6C991.36 372.6 992.34 373.02 992.993 373.86C993.74 374.607 994.113 375.68 994.113 377.08V468.22C994.113 469.527 993.74 470.6 992.993 471.44C992.246 472.28 991.22 472.7 989.913 472.7C988.513 472.7 987.253 472 986.133 470.6L924.813 387.86V468.22C924.813 469.527 924.44 470.6 923.693 471.44C922.946 472.28 921.966 472.7 920.753 472.7C919.353 472.7 918.326 472.327 917.673 471.58C917.02 470.74 916.693 469.62 916.693 468.22V377.08C916.693 375.773 917.066 374.7 917.813 373.86C918.653 373.02 919.773 372.6 921.173 372.6C922.666 372.6 923.88 373.3 924.813 374.7L985.993 457.3V377.08C985.993 375.773 986.366 374.7 987.113 373.86C987.86 373.02 988.84 372.6 990.053 372.6Z" fill="black"/>
</svg>
